<svg class="icon" viewBox="0 0 1024 1024" version="1.1" xmlns="http://www.w3.org/2000/svg" width="200" height="200">
  <path d="M807.3125 849.43973202H216.6875v-464.0625h590.625z m0-675h-42.1875v-84.375H680.75v84.375H343.25v-84.375H258.875v84.375h-42.1875a84.375 84.375 0 0 0-84.375 84.375v590.625a84.375 84.375 0 0 0 84.375 84.375h590.625a84.375 84.375 0 0 0 84.375-84.375v-590.625A84.375 84.375 0 0 0 807.3125 174.5zM703.109375 514.65178595l-44.71875-44.71875-205.875 205.875-89.25669608-89.55803595-44.71875 44.71875L452.69642892 765.125z" fill="#666666"></path>
</svg>
