<svg class="icon" viewBox="0 0 1024 1024" version="1.1" xmlns="http://www.w3.org/2000/svg" width="200" height="200">
	<path d="M816.04663086 882.78857422H207.95336914a66.74194336 66.74194336 0 0 1-66.74194336-66.74194336V207.95336914a66.74194336 66.74194336 0 0 1 66.74194336-66.74194336h400.45166016a22.24731445 22.24731445 0 1 1 0 44.49462891H207.95336914a22.24731445 22.24731445 0 0 0-22.24731445 22.24731445v608.09326172a22.24731445 22.24731445 0 0 0 22.24731445 22.24731445h608.09326172a22.24731445 22.24731445 0 0 0 22.24731445-22.24731445V416.85565185a22.24731445 22.24731445 0 0 1 44.49462891 0V816.04663086a66.74194336 66.74194336 0 0 1-66.74194336 66.74194336z" fill="#666666"></path>
	<path d="M466.0222168 648.96929932L375.03070068 557.9777832a22.24731445 22.24731445 0 0 1 0-31.44287109l372.27172852-372.27172852a44.49462891 44.49462891 0 0 1 62.9598999 0l59.32617187 59.32617188a44.49462891 44.49462891 0 0 1 0 62.9598999L497.16845703 648.96929932a22.24731445 22.24731445 0 0 1-31.14624023 0z m-43.82720948-106.71295166l59.32617188 59.32617187L838.29394531 245.03222656l-59.32617187-59.32617187z" fill="#666666"></path>
	<path d="M341.88220214 682.11779786a22.24731445 22.24731445 0 0 1-5.85845946-21.13494874l30.77545166-121.76696777a22.24731445 22.24731445 0 0 1 37.07885742-10.30792237l91.21398926 90.99151612a22.24731445 22.24731445 0 0 1-10.30792237 37.07885742l-121.76696777 30.9979248a22.24731445 22.24731445 0 0 1-21.13494874-5.85845947z m58.43627931-94.03198243l-12.01354981 47.60925293 47.60925293-12.01354981zM729.41558838 199.26208496l95.27783203 95.27783204-36.70806885 36.70806884-95.27783203-95.27783203z" fill="#666666"></path>
</svg>
